<?xml version="1.0" standalone="no"?>
<!DOCTYPE svg PUBLIC "-//W3C//DTD SVG 20010904//EN"
 "http://www.w3.org/TR/2001/REC-SVG-20010904/DTD/svg10.dtd">
<svg version="1.0" xmlns="http://www.w3.org/2000/svg"
 width="180.000000pt" height="180.000000pt" viewBox="0 0 180.000000 180.000000"
 preserveAspectRatio="xMidYMid meet">
<metadata>
Created by potrace 1.14, written by Peter Selinger 2001-2017
</metadata>
<g transform="translate(0.000000,180.000000) scale(0.100000,-0.100000)"
fill="#000000" stroke="none">
<path d="M880 1790 c-94 -26 -170 -114 -170 -198 0 -24 -8 -32 -55 -55 -99
-48 -171 -130 -211 -237 -23 -63 -28 -237 -9 -319 40 -169 141 -281 298 -330
37 -11 71 -20 75 -20 4 1 19 1 34 0 l26 -1 1 -99 1 -99 -29 -11 c-16 -7 -43
-27 -61 -44 -106 -103 -82 -271 49 -339 187 -98 395 78 316 268 -20 49 -50 81
-97 105 l-38 19 0 104 0 104 44 6 c24 4 74 22 112 40 105 50 171 125 203 232
20 69 21 195 1 219 -12 14 -43 15 -254 11 -133 -3 -259 -5 -282 -5 -48 -1 -63
-24 -54 -81 l5 -35 238 1 239 1 -6 -43 c-18 -147 -164 -240 -369 -233 -224 7
-350 150 -343 391 5 179 96 283 281 323 36 8 109 12 182 11 67 -1 128 1 135 5
19 12 22 137 4 180 -19 45 -71 97 -116 116 -39 17 -112 23 -150 13z m129 -145
c14 -13 13 -15 -9 -16 -38 -1 -102 -8 -133 -13 -24 -5 -26 -3 -18 12 9 17 39
36 71 45 21 6 71 -10 89 -28z"/>
</g>
</svg>
